<?xml version="1.0" standalone="no"?><!DOCTYPE svg PUBLIC "-//W3C//DTD SVG 1.1//EN" "http://www.w3.org/Graphics/SVG/1.1/DTD/svg11.dtd"><svg t="1497938261449" class="icon" style="" viewBox="0 0 1024 1024" version="1.1" xmlns="http://www.w3.org/2000/svg" p-id="2373" xmlns:xlink="http://www.w3.org/1999/xlink" width="16" height="16"><defs><style type="text/css"></style></defs><path d="M801.935903 349.123422c-24.162306-1.569752-104.309694 12.423961-146.501632 16.172331 3.238764-23.676236 11.199063-45.862537 22.340821-86.439698 12.048407-43.880393 31.381731-86.981027 24.90011-137.975445-11.003612-86.569658-110.345154-108.470457-140.192949-25.071002-2.139733 5.977132-42.296315 102.670357-42.296315 102.670357-32.625048 53.119825-33.428344 63.786769-112.563682 120.40937-68.172659 48.777937-82.535785 61.97961-94.995561 72.316026-8.540514 7.085372-17.742083 20.800745-17.742083 31.877011l0 351.381859c0 11.733229 5.63944 22.738887 15.156188 29.597085 52.219315 37.615713 236.396012 68.139913 328.930521 68.139913 48.12916 0 75.233472 1.292436 113.164363-19.828604 20.279882-11.292184 22.852474-28.652574 32.745798-37.862329 46.416146-43.210128 32.937157-101.365642 44.24776-112.820532 52.624545-53.295833 41.783639-117.722168 49.115628-135.069255 20.977777-49.630351 13.036921-48.192605 22.440082-82.467223C932.407444 388.520711 883.697045 354.436428 801.935903 349.123422zM169.214425 379.617947c-32.737612 0-59.273988 26.524097-59.273988 59.265802l0 358.658589c0 32.735565 26.5374 59.275012 59.273988 59.275012 32.731472 0 59.269895-26.539446 59.269895-59.275012l0-358.658589C228.48432 406.142044 201.945897 379.617947 169.214425 379.617947L169.214425 379.617947 169.214425 379.617947zM169.214425 379.617947" p-id="2374" fill="#ffffff"></path></svg>