<?xml version="1.0" standalone="no"?><!DOCTYPE svg PUBLIC "-//W3C//DTD SVG 1.1//EN" "http://www.w3.org/Graphics/SVG/1.1/DTD/svg11.dtd"><svg t="1498028804252" class="icon" style="" viewBox="0 0 1024 1024" version="1.1" xmlns="http://www.w3.org/2000/svg" p-id="2382" xmlns:xlink="http://www.w3.org/1999/xlink" width="16" height="16"><defs><style type="text/css"></style></defs><path d="M64.122925 191.756325c0 16.753569 6.897084 33.399691 18.74083 45.245484 11.845793 11.843746 28.490891 18.74083 45.240367 18.74083 16.753569 0 33.399691-6.897084 45.245484-18.74083 11.844769-11.845793 18.736736-28.491914 18.736736-45.245484 0-16.749476-6.891967-33.394574-18.736736-45.240367-11.845793-11.843746-28.491914-18.74083-45.245484-18.74083-16.749476 0-33.394574 6.897084-45.240367 18.74083C71.020008 158.361751 64.122925 175.006849 64.122925 191.756325L64.122925 191.756325zM64.122925 191.756325" fill="#ffffff" p-id="2383"></path><path d="M64.122925 511.669472c0 16.749476 6.897084 33.400714 18.74083 45.240367 11.845793 11.843746 28.490891 18.74083 45.240367 18.74083 16.753569 0 33.399691-6.897084 45.245484-18.74083 11.844769-11.839653 18.736736-28.491914 18.736736-45.240367 0-16.750499-6.891967-33.400714-18.736736-45.245484-11.845793-11.840676-28.491914-18.736736-45.245484-18.736736-16.749476 0-33.394574 6.89606-45.240367 18.736736C71.020008 478.269781 64.122925 494.919996 64.122925 511.669472L64.122925 511.669472zM64.122925 511.669472" fill="#ffffff" p-id="2384"></path><path d="M64.122925 831.582619c0 16.748453 6.897084 33.395598 18.74083 45.24139 11.845793 11.843746 28.490891 18.74083 45.240367 18.74083 16.753569 0 33.399691-6.897084 45.245484-18.74083 11.844769-11.845793 18.736736-28.492938 18.736736-45.24139 0-16.752546-6.891967-33.399691-18.736736-45.243437-11.845793-11.845793-28.491914-18.73776-45.245484-18.73776-16.749476 0-33.394574 6.890944-45.240367 18.73776C71.020008 798.182928 64.122925 814.830073 64.122925 831.582619L64.122925 831.582619zM64.122925 831.582619" fill="#ffffff" p-id="2385"></path><path d="M959.876052 197.705827c0 32.051997-25.985838 58.036811-58.037834 58.036811L379.101689 255.742638c-32.04995 0-58.031695-25.984814-58.031695-58.036811l0-11.899004c0-32.051997 25.981744-58.031695 58.031695-58.031695l522.736529 0c32.057113 0 58.037834 25.979698 58.037834 58.031695L959.876052 197.705827 959.876052 197.705827zM959.876052 197.705827" fill="#ffffff" p-id="2386"></path><path d="M959.876052 517.618974c0 32.051997-25.985838 58.032718-58.037834 58.032718L378.086569 575.651692c-32.051997 0-58.036811-25.980721-58.036811-58.032718L320.049758 505.720993c0-32.05302 25.985838-58.032718 58.036811-58.032718l523.751648 0c32.051997 0 58.037834 25.980721 58.037834 58.032718L959.876052 517.618974 959.876052 517.618974zM959.876052 517.618974" fill="#ffffff" p-id="2387"></path><path d="M959.876052 837.528028c0 32.05609-25.985838 58.036811-58.037834 58.036811L378.086569 895.564839c-32.051997 0-58.036811-25.986861-58.036811-58.036811l0-11.893888c0-32.051997 25.985838-58.032718 58.036811-58.032718l523.751648 0c32.057113 0 58.037834 25.980721 58.037834 58.032718L959.876052 837.528028 959.876052 837.528028zM959.876052 837.528028" fill="#ffffff" p-id="2388"></path></svg>